P2
# oie.pgm
17 7
255
0 13 13 13 13 13 13 13  0  0  0  0  0  0  0  0  0  
0 13  0  0  0  0  0 13  0  7  7  0  0 81 81 81 81  
0 13  0  7  7  7  0 13  0  7  7  0  0 81  0  0  0 
0 13  0  7  0  7  0 13  0  7  7  0  0 81 81 81  0
0 13  0  7  7  7  0 13  0  7  7  0  0 81  0  0  0 
0 13  0  0  0  0  0 13  0  7  7  0  0 81 81 81 81 
0 13 13 13 13 13 13 13  0  0  0  0  0  0  0  0  0 
